<?xml version="1.0" encoding="UTF-8" standalone="no"?>
<svg
   xmlns:dc="http://purl.org/dc/elements/1.1/"
   xmlns:cc="http://creativecommons.org/ns#"
   xmlns:rdf="http://www.w3.org/1999/02/22-rdf-syntax-ns#"
   xmlns:svg="http://www.w3.org/2000/svg"
   xmlns="http://www.w3.org/2000/svg"
   xmlns:sodipodi="http://sodipodi.sourceforge.net/DTD/sodipodi-0.dtd"
   xmlns:inkscape="http://www.inkscape.org/namespaces/inkscape"
   width="7.0499997mm"
   height="5.3539572mm"
   viewBox="0 0 7.0499997 5.3539572"
   version="1.1"
   id="svg1226"
   inkscape:version="0.92.3 (2405546, 2018-03-11)"
   sodipodi:docname="plotter.svg">
  <defs
     id="defs1220" />
  <sodipodi:namedview
     id="base"
     pagecolor="#ffffff"
     bordercolor="#666666"
     borderopacity="1.0"
     inkscape:pageopacity="0.0"
     inkscape:pageshadow="2"
     inkscape:zoom="22.627417"
     inkscape:cx="7.7571437"
     inkscape:cy="6.1538051"
     inkscape:document-units="mm"
     inkscape:current-layer="text1288"
     inkscape:document-rotation="0"
     showgrid="true"
     showguides="false"
     fit-margin-top="0"
     fit-margin-left="0"
     fit-margin-right="0"
     fit-margin-bottom="0"
     inkscape:window-width="1920"
     inkscape:window-height="994"
     inkscape:window-x="1680"
     inkscape:window-y="31"
     inkscape:window-maximized="1">
    <inkscape:grid
       type="xygrid"
       id="grid1258"
       spacingx="0.049999999"
       spacingy="0.049999999"
       units="mm"
       originx="-1.0999999"
       originy="-2.350001" />
  </sodipodi:namedview>
  <metadata
     id="metadata1223">
    <rdf:RDF>
      <cc:Work
         rdf:about="">
        <dc:format>image/svg+xml</dc:format>
        <dc:type
           rdf:resource="http://purl.org/dc/dcmitype/StillImage" />
        <dc:title />
      </cc:Work>
    </rdf:RDF>
  </metadata>
  <g
     inkscape:label="Ebene 1"
     inkscape:groupmode="layer"
     id="layer1"
     transform="translate(-1.1,-2.1999999)">
    <rect
       style="fill:none;stroke:#000000;stroke-width:0.80000001;stroke-linejoin:round;stroke-miterlimit:4;stroke-dasharray:none"
       id="rect1232"
       width="6.2499995"
       height="4.553957"
       x="1.5"
       y="2.5999999"
       ry="1"
       rx="0.99999994" />
    <g
       aria-label="OBP V3 "
       transform="scale(0.82122147,1.2176983)"
       style="font-weight:bold;font-size:1.66068685px;line-height:0.20758466px;font-family:'Comic Sans MS';-inkscape-font-specification:'Comic Sans MS Bold';letter-spacing:0px;word-spacing:0px;stroke-width:0.26458299"
       id="text1288">
      <path
         d="m 4.0646946,3.9313467 q 0,0.1183889 -0.0373,0.2197491 -0.037301,0.1005494 -0.1062256,0.1743397 -0.068114,0.07379 -0.1646091,0.1151453 -0.096495,0.041355 -0.2140729,0.041355 -0.117578,0 -0.2140729,-0.041355 -0.096495,-0.041355 -0.16542,-0.1151453 -0.068925,-0.07379 -0.1070365,-0.1743397 -0.037301,-0.1013602 -0.037301,-0.2197491 0,-0.1175779 0.037301,-0.2181273 0.038111,-0.1013603 0.1070365,-0.1743397 0.068925,-0.07379 0.16542,-0.1151452 0.096495,-0.042166 0.2140729,-0.042166 0.1175779,0 0.2140729,0.042166 0.096495,0.041355 0.1646091,0.1151452 0.068925,0.07379 0.1062256,0.1743397 0.0373,0.1005494 0.0373,0.2181273 z m -0.2173164,0 q 0,-0.085954 -0.021083,-0.1540676 Q 3.8052123,3.709165 3.7654791,3.661323 3.7265567,3.6134809 3.669795,3.5883435 3.6138441,3.5623953 3.5424865,3.5623953 q -0.071358,0 -0.1281194,0.025948 -0.056762,0.025137 -0.096495,0.072979 -0.038922,0.047842 -0.060005,0.1159561 -0.021083,0.068114 -0.021083,0.1540676 0,0.086764 0.021083,0.1556894 0.021083,0.068114 0.060005,0.1159562 0.039733,0.047031 0.096495,0.072169 0.056762,0.025137 0.1281194,0.025137 0.071358,0 0.1273085,-0.025137 0.056762,-0.025137 0.095684,-0.072169 0.039733,-0.047842 0.060816,-0.1159562 0.021083,-0.068925 0.021083,-0.1556887 z"
         style="font-style:normal;font-variant:normal;font-weight:bold;font-stretch:normal;font-size:1.66068685px;font-family:Calibri;-inkscape-font-specification:'Calibri Bold';stroke-width:0.26458299"
         id="path824"
         inkscape:connector-curvature="0" />
      <path
         d="M 4.1984902,4.4705834 V 3.3937318 h 0.3657079 q 0.1037929,0 0.1775832,0.020272 0.07379,0.020272 0.1200106,0.057573 0.047031,0.037301 0.068114,0.090819 0.021894,0.052707 0.021894,0.1183888 0,0.037301 -0.010541,0.072169 -0.010541,0.034868 -0.032435,0.064871 -0.021894,0.030003 -0.056762,0.05514 -0.034057,0.024326 -0.081899,0.041355 0.2083967,0.050275 0.2083967,0.2375885 0,0.068925 -0.025137,0.1273085 -0.025137,0.058383 -0.07379,0.1013603 -0.047842,0.042166 -0.1191997,0.066492 -0.070547,0.023515 -0.1621764,0.023515 z m 0.213262,-0.467879 v 0.3024591 h 0.1824486 q 0.051086,0 0.085143,-0.012974 0.034057,-0.012974 0.053518,-0.034868 0.020272,-0.021894 0.028381,-0.050275 0.00811,-0.029192 0.00811,-0.060005 0,-0.033246 -0.00973,-0.060005 -0.00892,-0.026759 -0.030003,-0.045409 -0.020272,-0.01865 -0.054329,-0.028381 -0.033246,-0.010541 -0.081899,-0.010541 z m 0,-0.1467697 h 0.1402827 q 0.090008,0 0.1386608,-0.034057 0.048653,-0.034868 0.048653,-0.1143344 0,-0.08271 -0.042166,-0.1159561 Q 4.6550169,3.55753 4.5641981,3.55753 H 4.4117522 Z"
         style="font-style:normal;font-variant:normal;font-weight:bold;font-stretch:normal;font-size:1.66068685px;font-family:Calibri;-inkscape-font-specification:'Calibri Bold';stroke-width:0.26458299"
         id="path826"
         inkscape:connector-curvature="0" />
      <path
         d="M 5.3394017,4.0967667 V 4.4705834 H 5.1261396 V 3.3937318 h 0.3462468 q 0.1046038,0 0.1800158,0.025948 0.075412,0.025948 0.1248759,0.072169 0.049464,0.045409 0.072979,0.1086582 0.023516,0.063249 0.023516,0.1386608 0,0.079467 -0.025137,0.145148 -0.024326,0.065681 -0.074601,0.1127126 -0.049464,0.047031 -0.1248759,0.07379 -0.075412,0.025948 -0.1767723,0.025948 z m 0,-0.16542 h 0.1329847 q 0.097306,0 0.1427152,-0.051086 0.045409,-0.051897 0.045409,-0.1410936 0,-0.083521 -0.04622,-0.1321738 Q 5.5680705,3.55753 5.4723864,3.55753 H 5.3394017 Z"
         style="font-style:normal;font-variant:normal;font-weight:bold;font-stretch:normal;font-size:1.66068685px;font-family:Calibri;-inkscape-font-specification:'Calibri Bold';stroke-width:0.26458299"
         id="path828"
         inkscape:connector-curvature="0" />
      <path
         d="m 6.2954316,3.3937318 h 0.1710962 q 0.02757,0 0.044599,0.012974 0.017839,0.012974 0.026759,0.034057 L 6.740606,4.0764947 q 0.012163,0.033246 0.024326,0.072169 0.012163,0.038922 0.022705,0.081088 0.00892,-0.042977 0.019461,-0.081899 0.011352,-0.039733 0.024326,-0.072979 L 7.0333345,3.440763 q 0.00649,-0.01865 0.025137,-0.032435 0.01865,-0.014596 0.045409,-0.014596 H 7.2757883 L 6.8816995,4.4705834 H 6.6895204 Z"
         style="font-style:normal;font-variant:normal;font-weight:bold;font-stretch:normal;font-size:1.66068685px;font-family:Calibri;-inkscape-font-specification:'Calibri Bold';stroke-width:0.26458299"
         id="path830"
         inkscape:connector-curvature="0" />
      <path
         d="M 7.3390373,4.4705834 Z M 7.7323152,3.3815686 q 0.074601,0 0.1337956,0.021894 0.060005,0.021894 0.1013603,0.060005 0.041355,0.037301 0.063249,0.088386 0.022705,0.050275 0.022705,0.1078474 0,0.051086 -0.011352,0.090008 -0.010541,0.038922 -0.031624,0.068114 -0.021083,0.029192 -0.051896,0.049464 -0.030814,0.020272 -0.069736,0.033246 0.1840703,0.062438 0.1840703,0.2489409 0,0.081899 -0.030003,0.144337 -0.029192,0.061627 -0.079466,0.1037929 -0.049464,0.042166 -0.1159562,0.063249 -0.065682,0.021083 -0.1386609,0.021083 -0.077034,0 -0.1362282,-0.017839 -0.058384,-0.017839 -0.102982,-0.053518 -0.043788,-0.03649 -0.076223,-0.090008 -0.031624,-0.053518 -0.054329,-0.124065 l 0.085953,-0.03649 q 0.034057,-0.013785 0.063249,-0.00649 0.030003,0.00649 0.042166,0.031624 0.014596,0.02757 0.030814,0.051896 0.016218,0.023516 0.03649,0.042166 0.021083,0.017839 0.047842,0.028381 0.026759,0.010542 0.061627,0.010542 0.042977,0 0.074601,-0.013785 0.032435,-0.014596 0.053518,-0.037301 0.021083,-0.023516 0.031624,-0.052707 0.010541,-0.029192 0.010541,-0.058384 0,-0.037301 -0.0073,-0.068114 -0.00649,-0.030813 -0.030813,-0.052707 -0.023516,-0.021894 -0.069736,-0.034057 -0.04622,-0.012163 -0.1256868,-0.012163 V 3.8502585 q 0.066492,-8.109e-4 0.1086583,-0.012163 0.042977,-0.011352 0.067303,-0.031624 0.024327,-0.021083 0.033246,-0.049464 0.00892,-0.028381 0.00892,-0.063249 0,-0.07379 -0.037301,-0.1110908 -0.03649,-0.037301 -0.1029821,-0.037301 -0.059194,0 -0.098928,0.033246 -0.039733,0.033246 -0.05514,0.081899 -0.012974,0.037301 -0.034868,0.048653 -0.021083,0.011352 -0.060816,0.00487 L 7.36904,3.6961909 q 0.011352,-0.078656 0.042977,-0.1370391 0.031624,-0.059194 0.079467,-0.098117 0.047842,-0.039733 0.1086582,-0.059194 0.061627,-0.020272 0.132173,-0.020272 z"
         style="font-style:normal;font-variant:normal;font-weight:bold;font-stretch:normal;font-size:1.66068685px;font-family:Calibri;-inkscape-font-specification:'Calibri Bold';stroke-width:0.26458299"
         id="path832"
         inkscape:connector-curvature="0" />
    </g>
  </g>
</svg>
